<svg width="49" height="12" viewBox="0 0 49 12" fill="none" xmlns="http://www.w3.org/2000/svg">
<path fill-rule="evenodd" clip-rule="evenodd" d="M41.206 11.104C41.9103 11.4027 42.6681 11.552 43.4792 11.552C44.2476 11.552 44.9626 11.4133 45.6243 11.136C46.286 10.848 46.8623 10.4533 47.3532 9.952C47.8441 9.45067 48.2283 8.864 48.5058 8.192C48.7833 7.52 48.922 6.79467 48.922 6.016V5.52H43.6553V6.608H47.6733C47.6093 7.33333 47.3852 7.984 47.001 8.56C46.6275 9.136 46.1312 9.58933 45.5122 9.92C44.9039 10.2507 44.2209 10.416 43.4632 10.416C42.8228 10.416 42.2252 10.2987 41.6702 10.064C41.1259 9.82933 40.6457 9.504 40.2295 9.088C39.8239 8.66133 39.5038 8.16533 39.269 7.6C39.0448 7.03467 38.9328 6.42667 38.9328 5.776C38.9328 5.11467 39.0448 4.50667 39.269 3.952C39.5038 3.38667 39.8239 2.896 40.2295 2.48C40.6457 2.05333 41.1259 1.72267 41.6702 1.488C42.2252 1.25333 42.8228 1.136 43.4632 1.136C44.1568 1.136 44.8185 1.27467 45.4482 1.552C46.0885 1.81867 46.6221 2.19733 47.049 2.688L47.8815 1.84C47.3372 1.25333 46.6808 0.8 45.9124 0.48C45.144 0.16 44.3276 0 43.4632 0C42.6521 0 41.8943 0.149333 41.19 0.448C40.4963 0.746667 39.8826 1.16267 39.349 1.696C38.8261 2.21867 38.4152 2.832 38.1164 3.536C37.8282 4.22933 37.6841 4.976 37.6841 5.776C37.6841 6.576 37.8335 7.328 38.1324 8.032C38.4312 8.72533 38.8421 9.33867 39.365 9.872C39.8986 10.3947 40.5123 10.8053 41.206 11.104ZM16.7481 11.376V0.176H24.7683V1.264H17.9807V5.184H22.415V6.256H17.9807V10.288H24.8323V11.376H16.7481ZM26.6126 11.376V0.176H27.8453L34.5848 9.264V0.176H35.7534V11.376H34.6648L27.7812 2.048V11.376H26.6126ZM1.28508 2.62009C0.990566 2.32883 0.5157 2.33146 0.224433 2.62597C-0.0668347 2.92048 -0.0642057 3.39534 0.230304 3.68661L3.98226 7.39725C4.27447 7.68624 4.74483 7.68624 5.03703 7.39725L8.78899 3.68661C9.0835 3.39534 9.08613 2.92048 8.79486 2.62597C8.5036 2.33146 8.02873 2.32883 7.73422 2.62009L4.50965 5.80916L1.28508 2.62009Z" fill="white"/>
</svg>
