<svg width="69" height="69" viewBox="0 0 69 69" fill="none" xmlns="http://www.w3.org/2000/svg">
<path fill-rule="evenodd" clip-rule="evenodd" d="M32.0358 0V7.39289H36.9644V0H32.0358ZM45.8664 47.4763C49.473 44.3146 51.7502 39.6733 51.7502 34.5001C51.7502 24.9732 44.0271 17.2501 34.5001 17.2501C24.9732 17.2501 17.2501 24.9732 17.2501 34.5001C17.2501 34.8496 17.2605 35.1966 17.2809 35.5409C15.5935 36.134 14.0181 36.965 12.595 37.9936C12.415 36.8556 12.3215 35.6888 12.3215 34.5001C12.3215 22.2512 22.2512 12.3215 34.5001 12.3215C46.7491 12.3215 56.6788 22.2512 56.6788 34.5001C56.6788 40.5833 54.2297 46.0945 50.2637 50.1015C49.0114 48.9415 47.5177 48.0386 45.8664 47.4763ZM61.6074 32.0358H69.0003V36.9644H61.6074V32.0358ZM63.1459 15.1159L56.7435 18.8124L59.2078 23.0807L65.6102 19.3842L63.1459 15.1159ZM45.9198 9.79264L49.6162 3.39021L53.8845 5.85451L50.188 12.2569L45.9198 9.79264ZM15.1159 5.85451L18.8124 12.2569L23.0807 9.79264L19.3842 3.39021L15.1159 5.85451ZM9.79249 23.0807L3.39006 19.3842L5.85436 15.1159L12.2568 18.8124L9.79249 23.0807ZM7.39289 32.0358H0V36.9644H7.39289V32.0358ZM63.146 53.8844L56.7436 50.1879L59.2079 45.9196L65.6103 49.6161L63.146 53.8844Z" fill="#262626"/>
<path fill-rule="evenodd" clip-rule="evenodd" d="M23.4108 64.0711C23.4793 64.0711 23.5477 64.0706 23.616 64.0696H41.7283C41.7598 64.0703 41.7914 64.0708 41.823 64.0711H41.893V64.0714C41.893 64.0714 41.893 64.0714 41.893 64.0714C45.976 64.0714 49.2859 60.7615 49.2859 56.6785C49.2859 52.5955 45.976 49.2856 41.893 49.2856C39.997 49.2856 38.2677 49.9993 36.9591 51.1728C36.9695 50.9558 36.9747 50.7376 36.9747 50.5181C36.9747 48.854 36.6748 47.26 36.1261 45.7871C37.8467 44.8742 39.8095 44.357 41.893 44.357C48.698 44.357 54.2145 49.8735 54.2145 56.6785C54.2145 63.4835 48.698 69 41.893 69C41.8629 69 41.8327 68.9999 41.8027 68.9997L23.5062 68.9997V68.9995C23.4744 68.9996 23.4426 68.9997 23.4108 68.9997C13.2033 68.9997 4.92854 60.7249 4.92854 50.5175C4.92854 40.31 13.2033 32.0352 23.4108 32.0352C31.4742 32.0352 38.3315 37.1989 40.8565 44.3998C39.1553 44.5415 37.5522 45.0289 36.1177 45.7914C34.1996 40.6362 29.234 36.9638 23.4108 36.9638C15.9253 36.9638 9.85713 43.032 9.85713 50.5175C9.85713 58.003 15.9253 64.0711 23.4108 64.0711Z" fill="#262626"/>
</svg>
