<svg width="36" height="50" viewBox="0 0 36 50" fill="none" xmlns="http://www.w3.org/2000/svg">
<path d="M13.7873 10.4335C16.5301 10.4335 18.7536 8.20978 18.7536 5.46673C18.7536 2.72368 16.5301 0.5 13.7873 0.5C11.0444 0.5 8.82092 2.72368 8.82092 5.46673C8.82092 8.20978 11.0444 10.4335 13.7873 10.4335Z" fill="white"/>
<path d="M27.138 39.4917C24.9687 43.2308 20.9231 45.746 16.2893 45.746C9.36617 45.746 3.75394 40.1333 3.75394 33.2097C3.75394 28.4056 6.45645 24.2335 10.4235 22.1288L10.0079 18.1747C4.13002 20.6335 0 26.4391 0 33.2096C0 42.2065 7.29299 49.5001 16.2893 49.5001C21.0864 49.5001 25.3987 47.4258 28.3796 44.1256L27.138 39.4917Z" fill="white"/>
<path d="M35.8977 45.7677L32.0998 31.5924H32.0994C31.7774 30.3911 30.6889 29.5557 29.4454 29.5557H18.3716C18.2281 29.5557 18.1078 29.4474 18.0927 29.3046L17.7201 25.7585C17.7026 25.5916 17.8334 25.4463 18.0011 25.4463H25.7809C26.9214 25.4463 27.8461 24.5217 27.8461 23.381C27.8461 22.2404 26.9215 21.3157 25.7809 21.3157H17.509C17.3635 21.3157 17.2415 21.2058 17.2263 21.0611L16.3842 13.8505C16.2347 12.4275 14.96 11.3952 13.5372 11.5448C12.1045 11.5448 11.0549 12.7106 11.2047 14.1355L13.0554 30.943C13.2815 33.0942 15.0952 34.7273 17.258 34.7273H27.4056C27.512 34.7273 27.605 34.7988 27.6326 34.9016L30.9026 47.1061C31.2721 48.4855 32.69 49.3042 34.0694 48.9346C35.4488 48.565 36.2674 47.1471 35.8977 45.7677Z" fill="white"/>
</svg>
