<svg width="109" height="40" viewBox="0 0 109 40" fill="none" xmlns="http://www.w3.org/2000/svg">
<path d="M33.5098 6.05124H34.2676V11.102H37.252V6.05124H38.0137V11.102H38.5371V13.3676H37.8652V11.7778H33.5098V6.05124Z" fill="black"/>
<path d="M42.1777 10.4419L42.9043 10.5317C42.7897 10.9562 42.5775 11.2856 42.2676 11.52C41.9577 11.7544 41.5618 11.8716 41.0801 11.8716C40.4733 11.8716 39.9915 11.6854 39.6348 11.313C39.2806 10.938 39.1035 10.4132 39.1035 9.73874C39.1035 9.04082 39.2832 8.49916 39.6426 8.11374C40.002 7.72832 40.4681 7.53561 41.041 7.53561C41.5957 7.53561 42.0488 7.72442 42.4004 8.10202C42.752 8.47962 42.9277 9.01087 42.9277 9.69577C42.9277 9.73744 42.9264 9.79994 42.9238 9.88327H39.8301C39.8561 10.339 39.985 10.688 40.2168 10.9301C40.4486 11.1723 40.7376 11.2934 41.084 11.2934C41.3418 11.2934 41.5618 11.2257 41.7441 11.0903C41.9264 10.9549 42.071 10.7387 42.1777 10.4419ZM39.8691 9.30515H42.1855C42.1543 8.95619 42.0658 8.69447 41.9199 8.51999C41.696 8.24916 41.4056 8.11374 41.0488 8.11374C40.7259 8.11374 40.4538 8.22181 40.2324 8.43796C40.0137 8.6541 39.8926 8.94317 39.8691 9.30515Z" fill="black"/>
<path d="M43.7949 7.62936H44.498V9.35593H46.4473V7.62936H47.1504V11.7778H46.4473V9.93796H44.498V11.7778H43.7949V7.62936Z" fill="black"/>
<path d="M47.834 7.62936H51.2051V8.2114H49.8691V11.7778H49.1699V8.2114H47.834V7.62936Z" fill="black"/>
<path d="M51.877 13.3676V7.62936H52.5176V8.16843C52.6686 7.95749 52.8392 7.79994 53.0293 7.69577C53.2194 7.589 53.4499 7.53561 53.7207 7.53561C54.0749 7.53561 54.3874 7.62676 54.6582 7.80905C54.929 7.99134 55.1335 8.24916 55.2715 8.58249C55.4095 8.91322 55.4785 9.2765 55.4785 9.67233C55.4785 10.0968 55.4017 10.4796 55.248 10.8208C55.097 11.1593 54.8757 11.4197 54.584 11.602C54.2949 11.7817 53.9902 11.8716 53.6699 11.8716C53.4355 11.8716 53.2246 11.8221 53.0371 11.7231C52.8522 11.6242 52.6999 11.4992 52.5801 11.3481V13.3676H51.877ZM52.5137 9.72702C52.5137 10.2609 52.6217 10.6554 52.8379 10.9106C53.054 11.1658 53.3158 11.2934 53.623 11.2934C53.9355 11.2934 54.2025 11.1619 54.4238 10.8989C54.6478 10.6333 54.7598 10.2231 54.7598 9.66843C54.7598 9.13978 54.6504 8.74395 54.4316 8.48093C54.2155 8.21791 53.9564 8.0864 53.6543 8.0864C53.3548 8.0864 53.0892 8.22702 52.8574 8.50827C52.6283 8.78692 52.5137 9.19317 52.5137 9.72702Z" fill="black"/>
<path d="M33.0371 16.7405H36.4082V17.3225H35.0723V20.8889H34.373V17.3225H33.0371V16.7405Z" fill="black"/>
<path d="M37.0801 22.4788V16.7405H37.7207V17.2795C37.8717 17.0686 38.0423 16.911 38.2324 16.8069C38.4225 16.7001 38.653 16.6467 38.9238 16.6467C39.278 16.6467 39.5905 16.7379 39.8613 16.9202C40.1322 17.1025 40.3366 17.3603 40.4746 17.6936C40.6126 18.0243 40.6816 18.3876 40.6816 18.7834C40.6816 19.2079 40.6048 19.5907 40.4512 19.9319C40.3001 20.2704 40.0788 20.5308 39.7871 20.7131C39.498 20.8928 39.1934 20.9827 38.873 20.9827C38.6387 20.9827 38.4277 20.9332 38.2402 20.8342C38.0553 20.7353 37.903 20.6103 37.7832 20.4592V22.4788H37.0801ZM37.7168 18.8381C37.7168 19.372 37.8249 19.7665 38.041 20.0217C38.2572 20.2769 38.5189 20.4045 38.8262 20.4045C39.1387 20.4045 39.4056 20.273 39.627 20.01C39.8509 19.7444 39.9629 19.3342 39.9629 18.7795C39.9629 18.2509 39.8535 17.8551 39.6348 17.592C39.4186 17.329 39.1595 17.1975 38.8574 17.1975C38.5579 17.1975 38.2923 17.3381 38.0605 17.6194C37.8314 17.898 37.7168 18.3043 37.7168 18.8381Z" fill="black"/>
<path d="M41.4082 22.4866L41.3301 21.8264C41.4837 21.8681 41.6178 21.8889 41.7324 21.8889C41.8887 21.8889 42.0137 21.8629 42.1074 21.8108C42.2012 21.7587 42.278 21.6858 42.3379 21.592C42.3822 21.5217 42.4538 21.3472 42.5527 21.0686C42.5658 21.0295 42.5866 20.9722 42.6152 20.8967L41.041 16.7405H41.7988L42.6621 19.1428C42.7741 19.4475 42.8743 19.7678 42.9629 20.1038C43.0436 19.7808 43.14 19.4657 43.252 19.1584L44.1387 16.7405H44.8418L43.2637 20.9592C43.0944 21.415 42.9629 21.7288 42.8691 21.9006C42.7441 22.1324 42.6009 22.3017 42.4395 22.4084C42.278 22.5178 42.0853 22.5725 41.8613 22.5725C41.7259 22.5725 41.5749 22.5439 41.4082 22.4866Z" fill="black"/>
<path d="M45.7285 16.7405H48.6191V20.3108H49.0684V22.0647H48.4902V20.8889H45.2246V22.0647H44.6465V20.3108H45.0176C45.5124 19.6389 45.7493 18.4488 45.7285 16.7405ZM46.3145 17.3225C46.2624 18.6689 46.054 19.665 45.6895 20.3108H47.9199V17.3225H46.3145Z" fill="black"/>
<path d="M49.584 18.8147C49.584 18.0465 49.7975 17.4775 50.2246 17.1077C50.5814 16.8004 51.0163 16.6467 51.5293 16.6467C52.0996 16.6467 52.5658 16.8342 52.9277 17.2092C53.2897 17.5816 53.4707 18.0972 53.4707 18.7561C53.4707 19.29 53.39 19.7105 53.2285 20.0178C53.0697 20.3225 52.8366 20.5595 52.5293 20.7288C52.2246 20.898 51.8913 20.9827 51.5293 20.9827C50.9486 20.9827 50.4785 20.7965 50.1191 20.4241C49.7624 20.0517 49.584 19.5152 49.584 18.8147ZM50.3066 18.8147C50.3066 19.3459 50.4225 19.7444 50.6543 20.01C50.8861 20.273 51.1777 20.4045 51.5293 20.4045C51.8783 20.4045 52.1686 20.2717 52.4004 20.0061C52.6322 19.7405 52.748 19.3355 52.748 18.7913C52.748 18.2782 52.6309 17.8902 52.3965 17.6272C52.1647 17.3616 51.8757 17.2288 51.5293 17.2288C51.1777 17.2288 50.8861 17.3603 50.6543 17.6233C50.4225 17.8863 50.3066 18.2834 50.3066 18.8147Z" fill="black"/>
<path d="M54.1738 22.4866L54.0957 21.8264C54.2493 21.8681 54.3835 21.8889 54.498 21.8889C54.6543 21.8889 54.7793 21.8629 54.873 21.8108C54.9668 21.7587 55.0436 21.6858 55.1035 21.592C55.1478 21.5217 55.2194 21.3472 55.3184 21.0686C55.3314 21.0295 55.3522 20.9722 55.3809 20.8967L53.8066 16.7405H54.5645L55.4277 19.1428C55.5397 19.4475 55.64 19.7678 55.7285 20.1038C55.8092 19.7808 55.9056 19.4657 56.0176 19.1584L56.9043 16.7405H57.6074L56.0293 20.9592C55.86 21.415 55.7285 21.7288 55.6348 21.9006C55.5098 22.1324 55.3665 22.3017 55.2051 22.4084C55.0436 22.5178 54.8509 22.5725 54.627 22.5725C54.4915 22.5725 54.3405 22.5439 54.1738 22.4866Z" fill="black"/>
<path d="M60.8184 19.3694L61.5098 19.4592C61.4342 19.9358 61.2402 20.3095 60.9277 20.5803C60.6178 20.8485 60.2363 20.9827 59.7832 20.9827C59.2155 20.9827 58.7585 20.7978 58.4121 20.428C58.0684 20.0556 57.8965 19.523 57.8965 18.8303C57.8965 18.3824 57.9707 17.9905 58.1191 17.6545C58.2676 17.3186 58.4928 17.0673 58.7949 16.9006C59.0996 16.7314 59.4303 16.6467 59.7871 16.6467C60.2376 16.6467 60.6061 16.7613 60.8926 16.9905C61.179 17.217 61.3626 17.54 61.4434 17.9592L60.7598 18.0647C60.6947 17.786 60.5788 17.5764 60.4121 17.4358C60.248 17.2952 60.0488 17.2248 59.8145 17.2248C59.4603 17.2248 59.1725 17.3525 58.9512 17.6077C58.7298 17.8603 58.6191 18.2613 58.6191 18.8108C58.6191 19.3681 58.7259 19.773 58.9395 20.0256C59.153 20.2782 59.4316 20.4045 59.7754 20.4045C60.0514 20.4045 60.2819 20.3199 60.4668 20.1506C60.6517 19.9814 60.7689 19.7209 60.8184 19.3694Z" fill="black"/>
<path d="M61.7324 16.7405H65.1035V17.3225H63.7676V20.8889H63.0684V17.3225H61.7324V16.7405Z" fill="black"/>
<path d="M65.7754 22.4788V16.7405H66.416V17.2795C66.5671 17.0686 66.7376 16.911 66.9277 16.8069C67.1178 16.7001 67.3483 16.6467 67.6191 16.6467C67.9733 16.6467 68.2858 16.7379 68.5566 16.9202C68.8275 17.1025 69.0319 17.3603 69.1699 17.6936C69.3079 18.0243 69.377 18.3876 69.377 18.7834C69.377 19.2079 69.3001 19.5907 69.1465 19.9319C68.9954 20.2704 68.7741 20.5308 68.4824 20.7131C68.1934 20.8928 67.8887 20.9827 67.5684 20.9827C67.334 20.9827 67.1231 20.9332 66.9356 20.8342C66.7507 20.7353 66.5983 20.6103 66.4785 20.4592V22.4788H65.7754ZM66.4121 18.8381C66.4121 19.372 66.5202 19.7665 66.7363 20.0217C66.9525 20.2769 67.2142 20.4045 67.5215 20.4045C67.834 20.4045 68.1009 20.273 68.3223 20.01C68.5462 19.7444 68.6582 19.3342 68.6582 18.7795C68.6582 18.2509 68.5488 17.8551 68.3301 17.592C68.1139 17.329 67.8548 17.1975 67.5527 17.1975C67.2533 17.1975 66.9876 17.3381 66.7559 17.6194C66.5267 17.898 66.4121 18.3043 66.4121 18.8381Z" fill="black"/>
<path d="M69.9668 18.8147C69.9668 18.0465 70.1803 17.4775 70.6074 17.1077C70.9642 16.8004 71.3991 16.6467 71.9121 16.6467C72.4824 16.6467 72.9486 16.8342 73.3106 17.2092C73.6725 17.5816 73.8535 18.0972 73.8535 18.7561C73.8535 19.29 73.7728 19.7105 73.6113 20.0178C73.4525 20.3225 73.2194 20.5595 72.9121 20.7288C72.6074 20.898 72.2741 20.9827 71.9121 20.9827C71.3314 20.9827 70.8613 20.7965 70.502 20.4241C70.1452 20.0517 69.9668 19.5152 69.9668 18.8147ZM70.6895 18.8147C70.6895 19.3459 70.8053 19.7444 71.0371 20.01C71.2689 20.273 71.5606 20.4045 71.9121 20.4045C72.2611 20.4045 72.5514 20.2717 72.7832 20.0061C73.015 19.7405 73.1309 19.3355 73.1309 18.7913C73.1309 18.2782 73.0137 17.8902 72.7793 17.6272C72.5475 17.3616 72.2585 17.2288 71.9121 17.2288C71.5606 17.2288 71.2689 17.3603 71.0371 17.6233C70.8053 17.8863 70.6895 18.2834 70.6895 18.8147Z" fill="black"/>
<path d="M74.6816 16.7405H75.3848V19.9045L77.334 16.7405H78.0918V20.8889H77.3887V17.7444L75.4395 20.8889H74.6816V16.7405ZM77.1231 15.1702H77.6035C77.5645 15.4957 77.4447 15.7457 77.2441 15.9202C77.0462 16.0946 76.7819 16.1819 76.4512 16.1819C76.1178 16.1819 75.8509 16.0959 75.6504 15.9241C75.4525 15.7496 75.334 15.4983 75.2949 15.1702H75.7754C75.8119 15.3472 75.8835 15.4801 75.9902 15.5686C76.0996 15.6545 76.2454 15.6975 76.4277 15.6975C76.6387 15.6975 76.7975 15.6558 76.9043 15.5725C77.0137 15.4866 77.0866 15.3525 77.1231 15.1702Z" fill="black"/>
<path d="M81.8574 19.3694L82.5488 19.4592C82.4733 19.9358 82.2793 20.3095 81.9668 20.5803C81.6569 20.8485 81.2754 20.9827 80.8223 20.9827C80.2546 20.9827 79.7975 20.7978 79.4512 20.428C79.1074 20.0556 78.9356 19.523 78.9356 18.8303C78.9356 18.3824 79.0098 17.9905 79.1582 17.6545C79.3066 17.3186 79.5319 17.0673 79.834 16.9006C80.1387 16.7314 80.4694 16.6467 80.8262 16.6467C81.2767 16.6467 81.6452 16.7613 81.9316 16.9905C82.2181 17.217 82.4017 17.54 82.4824 17.9592L81.7988 18.0647C81.7337 17.786 81.6178 17.5764 81.4512 17.4358C81.2871 17.2952 81.0879 17.2248 80.8535 17.2248C80.4994 17.2248 80.2116 17.3525 79.9902 17.6077C79.7689 17.8603 79.6582 18.2613 79.6582 18.8108C79.6582 19.3681 79.765 19.773 79.9785 20.0256C80.1921 20.2782 80.4707 20.4045 80.8145 20.4045C81.0905 20.4045 81.321 20.3199 81.5059 20.1506C81.6908 19.9814 81.8079 19.7209 81.8574 19.3694Z" fill="black"/>
<path d="M82.7715 16.7405H86.1426V17.3225H84.8066V20.8889H84.1074V17.3225H82.7715V16.7405Z" fill="black"/>
<path d="M86.8184 16.7405H88.4395C88.8379 16.7405 89.1335 16.7743 89.3262 16.842C89.5215 16.9071 89.6882 17.0282 89.8262 17.2053C89.9668 17.3824 90.0371 17.5946 90.0371 17.842C90.0371 18.04 89.9954 18.2131 89.9121 18.3616C89.8314 18.5074 89.709 18.6298 89.5449 18.7288C89.7402 18.7939 89.9017 18.9163 90.0293 19.0959C90.1595 19.273 90.2246 19.484 90.2246 19.7288C90.1986 20.122 90.0579 20.4137 89.8027 20.6038C89.5475 20.7939 89.1764 20.8889 88.6895 20.8889H86.8184V16.7405ZM87.5215 18.4866H88.2715C88.571 18.4866 88.7767 18.4709 88.8887 18.4397C89.0007 18.4084 89.1009 18.3459 89.1895 18.2522C89.278 18.1558 89.3223 18.0413 89.3223 17.9084C89.3223 17.6897 89.2441 17.5373 89.0879 17.4514C88.9342 17.3655 88.6699 17.3225 88.2949 17.3225H87.5215V18.4866ZM87.5215 20.3108H88.4473C88.8457 20.3108 89.1191 20.2652 89.2676 20.1741C89.416 20.0803 89.4941 19.9202 89.502 19.6936C89.502 19.5608 89.459 19.4384 89.3731 19.3264C89.2871 19.2118 89.1751 19.1402 89.0371 19.1116C88.8991 19.0803 88.6777 19.0647 88.3731 19.0647H87.5215V20.3108Z" fill="black"/>
<path d="M93.6777 20.3772C93.4173 20.5985 93.166 20.7548 92.9238 20.8459C92.6842 20.9371 92.4264 20.9827 92.1504 20.9827C91.6947 20.9827 91.3444 20.872 91.0996 20.6506C90.8548 20.4267 90.7324 20.1415 90.7324 19.7952C90.7324 19.592 90.778 19.4071 90.8691 19.2405C90.9629 19.0712 91.084 18.9358 91.2324 18.8342C91.3835 18.7327 91.5527 18.6558 91.7402 18.6038C91.8783 18.5673 92.0866 18.5321 92.3652 18.4983C92.9329 18.4306 93.3509 18.3498 93.6191 18.2561C93.6217 18.1597 93.6231 18.0985 93.6231 18.0725C93.6231 17.786 93.5566 17.5842 93.4238 17.467C93.2441 17.3082 92.9772 17.2288 92.6231 17.2288C92.2923 17.2288 92.0475 17.2873 91.8887 17.4045C91.7324 17.5191 91.6165 17.7235 91.541 18.0178L90.8535 17.9241C90.916 17.6298 91.0189 17.3928 91.1621 17.2131C91.3053 17.0308 91.5124 16.8915 91.7832 16.7952C92.054 16.6962 92.3678 16.6467 92.7246 16.6467C93.0788 16.6467 93.3665 16.6884 93.5879 16.7717C93.8092 16.8551 93.972 16.9605 94.0762 17.0881C94.1803 17.2131 94.2533 17.372 94.2949 17.5647C94.3184 17.6845 94.3301 17.9006 94.3301 18.2131V19.1506C94.3301 19.8043 94.3444 20.2183 94.3731 20.3928C94.4043 20.5647 94.4642 20.7301 94.5527 20.8889H93.8184C93.7454 20.7431 93.6986 20.5725 93.6777 20.3772ZM93.6191 18.8069C93.3639 18.911 92.9811 18.9996 92.4707 19.0725C92.1816 19.1142 91.9772 19.161 91.8574 19.2131C91.7376 19.2652 91.6452 19.342 91.5801 19.4436C91.515 19.5426 91.4824 19.6532 91.4824 19.7756C91.4824 19.9631 91.5527 20.1194 91.6934 20.2444C91.8366 20.3694 92.0449 20.4319 92.3184 20.4319C92.5892 20.4319 92.8301 20.3733 93.041 20.2561C93.252 20.1363 93.4069 19.9735 93.5059 19.7678C93.5814 19.609 93.6191 19.3746 93.6191 19.0647V18.8069Z" fill="black"/>
<path d="M33.4199 25.8516H35.8066V26.4336H34.123V30H33.4199V25.8516Z" fill="black"/>
<path d="M36.3379 31.5899V25.8516H36.9785V26.3906C37.1296 26.1797 37.3001 26.0222 37.4902 25.918C37.6803 25.8112 37.9108 25.7578 38.1816 25.7578C38.5358 25.7578 38.8483 25.849 39.1191 26.0313C39.39 26.2136 39.5944 26.4714 39.7324 26.8047C39.8704 27.1354 39.9395 27.4987 39.9395 27.8946C39.9395 28.319 39.8626 28.7018 39.709 29.043C39.5579 29.3815 39.3366 29.6419 39.0449 29.8242C38.7559 30.0039 38.4512 30.0938 38.1309 30.0938C37.8965 30.0938 37.6855 30.0443 37.498 29.9453C37.3132 29.8464 37.1608 29.7214 37.041 29.5703V31.5899H36.3379ZM36.9746 27.9492C36.9746 28.4831 37.0827 28.8776 37.2988 29.1328C37.515 29.388 37.7767 29.5156 38.084 29.5156C38.3965 29.5156 38.6634 29.3841 38.8848 29.1211C39.1087 28.8555 39.2207 28.4453 39.2207 27.8906C39.2207 27.362 39.1113 26.9662 38.8926 26.7031C38.6764 26.4401 38.4173 26.3086 38.1152 26.3086C37.8158 26.3086 37.5501 26.4492 37.3184 26.7305C37.0892 27.0091 36.9746 27.4154 36.9746 27.9492Z" fill="black"/>
<path d="M43.498 29.4883C43.2376 29.7097 42.9863 29.8659 42.7441 29.9571C42.5046 30.0482 42.2467 30.0938 41.9707 30.0938C41.515 30.0938 41.1647 29.9831 40.9199 29.7617C40.6751 29.5378 40.5527 29.2526 40.5527 28.9063C40.5527 28.7031 40.5983 28.5183 40.6895 28.3516C40.7832 28.1823 40.9043 28.0469 41.0527 27.9453C41.2038 27.8438 41.373 27.7669 41.5605 27.7149C41.6986 27.6784 41.9069 27.6433 42.1855 27.6094C42.7533 27.5417 43.1712 27.461 43.4395 27.3672C43.4421 27.2709 43.4434 27.2097 43.4434 27.1836C43.4434 26.8972 43.377 26.6953 43.2441 26.5781C43.0645 26.4193 42.7975 26.3399 42.4434 26.3399C42.1126 26.3399 41.8678 26.3985 41.709 26.5156C41.5527 26.6302 41.4368 26.8347 41.3613 27.1289L40.6738 27.0352C40.7363 26.7409 40.8392 26.5039 40.9824 26.3242C41.1257 26.1419 41.3327 26.0026 41.6035 25.9063C41.8743 25.8073 42.1882 25.7578 42.5449 25.7578C42.8991 25.7578 43.1868 25.7995 43.4082 25.8828C43.6296 25.9662 43.7923 26.0716 43.8965 26.1992C44.0007 26.3242 44.0736 26.4831 44.1152 26.6758C44.1387 26.7956 44.1504 27.0117 44.1504 27.3242V28.2617C44.1504 28.9154 44.1647 29.3294 44.1934 29.5039C44.2246 29.6758 44.2845 29.8412 44.373 30H43.6387C43.5658 29.8542 43.5189 29.6836 43.498 29.4883ZM43.4395 27.918C43.1842 28.0222 42.8014 28.1107 42.291 28.1836C42.002 28.2253 41.7975 28.2722 41.6777 28.3242C41.5579 28.3763 41.4655 28.4531 41.4004 28.5547C41.3353 28.6537 41.3027 28.7643 41.3027 28.8867C41.3027 29.0742 41.373 29.2305 41.5137 29.3555C41.6569 29.4805 41.8652 29.543 42.1387 29.543C42.4095 29.543 42.6504 29.4844 42.8613 29.3672C43.0723 29.2474 43.2272 29.0847 43.3262 28.8789C43.4017 28.7201 43.4395 28.4857 43.4395 28.1758V27.918Z" fill="black"/>
<path d="M47.752 25.8516V27.6446C47.9759 27.6446 48.1335 27.6016 48.2246 27.5156C48.3158 27.4297 48.4486 27.1797 48.623 26.7656C48.7871 26.3724 48.9342 26.1211 49.0645 26.0117C49.1921 25.905 49.3952 25.8516 49.6738 25.8516H49.9316V26.4336L49.7402 26.4297C49.5527 26.4297 49.4329 26.4571 49.3809 26.5117C49.3262 26.569 49.2428 26.7396 49.1309 27.0235C49.0267 27.2943 48.9303 27.4818 48.8418 27.586C48.7533 27.6901 48.6152 27.7852 48.4277 27.8711C48.7324 27.9518 49.0293 28.2331 49.3184 28.7149L50.0918 30H49.3184L48.5645 28.7149C48.4108 28.4544 48.2767 28.2839 48.1621 28.2031C48.0475 28.1224 47.9108 28.0821 47.752 28.0821V30H47.0332V28.0821C46.877 28.0821 46.7415 28.1224 46.627 28.2031C46.5124 28.2813 46.3783 28.4518 46.2246 28.7149L45.4707 30H44.6973L45.4668 28.7149C45.7585 28.2331 46.0566 27.9518 46.3613 27.8711C46.153 27.7748 46.0072 27.6706 45.9238 27.5586C45.8405 27.444 45.7155 27.1732 45.5488 26.7461C45.4915 26.6029 45.4303 26.5143 45.3652 26.4805C45.2975 26.4466 45.1973 26.4297 45.0645 26.4297C45.0306 26.4297 44.9616 26.431 44.8574 26.4336V25.8516H44.9551C45.2259 25.8516 45.416 25.8685 45.5254 25.9024C45.6374 25.9336 45.7363 26.0026 45.8223 26.1094C45.9108 26.2136 46.0254 26.4323 46.166 26.7656C46.3379 27.1745 46.4681 27.4232 46.5566 27.5117C46.6478 27.6003 46.8066 27.6446 47.0332 27.6446V25.8516H47.752Z" fill="black"/>
<path d="M51.1504 25.8516H54.041V29.4219H54.4902V31.1758H53.9121V30H50.6465V31.1758H50.0684V29.4219H50.4395C50.9342 28.75 51.1712 27.5599 51.1504 25.8516ZM51.7363 26.4336C51.6842 27.78 51.4759 28.7761 51.1113 29.4219H53.3418V26.4336H51.7363Z" fill="black"/>
<path d="M57.9746 29.4883C57.7142 29.7097 57.4629 29.8659 57.2207 29.9571C56.9811 30.0482 56.7233 30.0938 56.4473 30.0938C55.9915 30.0938 55.6413 29.9831 55.3965 29.7617C55.1517 29.5378 55.0293 29.2526 55.0293 28.9063C55.0293 28.7031 55.0749 28.5183 55.166 28.3516C55.2598 28.1823 55.3809 28.0469 55.5293 27.9453C55.6803 27.8438 55.8496 27.7669 56.0371 27.7149C56.1751 27.6784 56.3835 27.6433 56.6621 27.6094C57.2298 27.5417 57.6478 27.461 57.916 27.3672C57.9186 27.2709 57.9199 27.2097 57.9199 27.1836C57.9199 26.8972 57.8535 26.6953 57.7207 26.5781C57.541 26.4193 57.2741 26.3399 56.9199 26.3399C56.5892 26.3399 56.3444 26.3985 56.1855 26.5156C56.0293 26.6302 55.9134 26.8347 55.8379 27.1289L55.1504 27.0352C55.2129 26.7409 55.3158 26.5039 55.459 26.3242C55.6022 26.1419 55.8092 26.0026 56.0801 25.9063C56.3509 25.8073 56.6647 25.7578 57.0215 25.7578C57.3757 25.7578 57.6634 25.7995 57.8848 25.8828C58.1061 25.9662 58.2689 26.0716 58.373 26.1992C58.4772 26.3242 58.5501 26.4831 58.5918 26.6758C58.6152 26.7956 58.627 27.0117 58.627 27.3242V28.2617C58.627 28.9154 58.6413 29.3294 58.6699 29.5039C58.7012 29.6758 58.7611 29.8412 58.8496 30H58.1152C58.0423 29.8542 57.9954 29.6836 57.9746 29.4883ZM57.916 27.918C57.6608 28.0222 57.278 28.1107 56.7676 28.1836C56.4785 28.2253 56.2741 28.2722 56.1543 28.3242C56.0345 28.3763 55.9421 28.4531 55.877 28.5547C55.8119 28.6537 55.7793 28.7643 55.7793 28.8867C55.7793 29.0742 55.8496 29.2305 55.9902 29.3555C56.1335 29.4805 56.3418 29.543 56.6152 29.543C56.8861 29.543 57.127 29.4844 57.3379 29.3672C57.5488 29.2474 57.7038 29.0847 57.8027 28.8789C57.8783 28.7201 57.916 28.4857 57.916 28.1758V27.918Z" fill="black"/>
<path d="M59.7246 25.8516H60.4277V27.5781H62.377V25.8516H63.0801V30H62.377V28.1602H60.4277V30H59.7246V25.8516Z" fill="black"/>
<path d="M67.2871 28.125V27.5742C67.584 27.5716 67.7858 27.5599 67.8926 27.5391C68.002 27.5183 68.1048 27.4558 68.2012 27.3516C68.2975 27.2474 68.3457 27.1172 68.3457 26.961C68.3457 26.7709 68.2819 26.6198 68.1543 26.5078C68.0293 26.3933 67.8665 26.336 67.666 26.336C67.2702 26.336 66.9928 26.569 66.834 27.0352L66.166 26.9258C66.3744 26.1472 66.877 25.7578 67.6738 25.7578C68.1165 25.7578 68.4629 25.8789 68.7129 26.1211C68.9655 26.3633 69.0918 26.6524 69.0918 26.9883C69.0918 27.3268 68.9277 27.5964 68.5996 27.7969C68.8079 27.9089 68.9642 28.0521 69.0684 28.2266C69.1725 28.3985 69.2246 28.6029 69.2246 28.8399C69.2246 29.2123 69.0892 29.5143 68.8184 29.7461C68.5475 29.9779 68.1686 30.0938 67.6816 30.0938C66.7363 30.0938 66.1882 29.6732 66.0371 28.8321L66.6973 28.6914C66.7572 28.9571 66.8783 29.1628 67.0606 29.3086C67.2454 29.4544 67.4564 29.5274 67.6934 29.5274C67.9303 29.5274 68.127 29.461 68.2832 29.3281C68.4421 29.1927 68.5215 29.0209 68.5215 28.8125C68.5215 28.6511 68.472 28.5104 68.3731 28.3906C68.2741 28.2709 68.1686 28.1966 68.0566 28.168C67.9447 28.1367 67.7415 28.1211 67.4473 28.1211C67.4238 28.1211 67.3704 28.1224 67.2871 28.125Z" fill="black"/>
<path d="M72.7481 29.4883C72.4876 29.7097 72.2363 29.8659 71.9941 29.9571C71.7546 30.0482 71.4967 30.0938 71.2207 30.0938C70.765 30.0938 70.4147 29.9831 70.1699 29.7617C69.9251 29.5378 69.8027 29.2526 69.8027 28.9063C69.8027 28.7031 69.8483 28.5183 69.9395 28.3516C70.0332 28.1823 70.1543 28.0469 70.3027 27.9453C70.4538 27.8438 70.6231 27.7669 70.8106 27.7149C70.9486 27.6784 71.1569 27.6433 71.4356 27.6094C72.0033 27.5417 72.4212 27.461 72.6895 27.3672C72.6921 27.2709 72.6934 27.2097 72.6934 27.1836C72.6934 26.8972 72.627 26.6953 72.4941 26.5781C72.3145 26.4193 72.0475 26.3399 71.6934 26.3399C71.3626 26.3399 71.1178 26.3985 70.959 26.5156C70.8027 26.6302 70.6869 26.8347 70.6113 27.1289L69.9238 27.0352C69.9863 26.7409 70.0892 26.5039 70.2324 26.3242C70.3757 26.1419 70.5827 26.0026 70.8535 25.9063C71.1244 25.8073 71.4382 25.7578 71.7949 25.7578C72.1491 25.7578 72.4369 25.7995 72.6582 25.8828C72.8796 25.9662 73.0423 26.0716 73.1465 26.1992C73.2507 26.3242 73.3236 26.4831 73.3652 26.6758C73.3887 26.7956 73.4004 27.0117 73.4004 27.3242V28.2617C73.4004 28.9154 73.4147 29.3294 73.4434 29.5039C73.4746 29.6758 73.5345 29.8412 73.6231 30H72.8887C72.8158 29.8542 72.7689 29.6836 72.7481 29.4883ZM72.6895 27.918C72.4342 28.0222 72.0514 28.1107 71.541 28.1836C71.252 28.2253 71.0475 28.2722 70.9277 28.3242C70.8079 28.3763 70.7155 28.4531 70.6504 28.5547C70.5853 28.6537 70.5527 28.7643 70.5527 28.8867C70.5527 29.0742 70.6231 29.2305 70.7637 29.3555C70.9069 29.4805 71.1152 29.543 71.3887 29.543C71.6595 29.543 71.9004 29.4844 72.1113 29.3672C72.3223 29.2474 72.4772 29.0847 72.5762 28.8789C72.6517 28.7201 72.6895 28.4857 72.6895 28.1758V27.918Z" fill="black"/>
<path d="M76.7207 31.5899V25.8516H77.3613V26.3906C77.5124 26.1797 77.6829 26.0222 77.8731 25.918C78.0632 25.8112 78.2936 25.7578 78.5645 25.7578C78.9186 25.7578 79.2311 25.849 79.502 26.0313C79.7728 26.2136 79.9772 26.4714 80.1152 26.8047C80.2533 27.1354 80.3223 27.4987 80.3223 27.8946C80.3223 28.319 80.2454 28.7018 80.0918 29.043C79.9408 29.3815 79.7194 29.6419 79.4277 29.8242C79.1387 30.0039 78.834 30.0938 78.5137 30.0938C78.2793 30.0938 78.0684 30.0443 77.8809 29.9453C77.696 29.8464 77.5436 29.7214 77.4238 29.5703V31.5899H76.7207ZM77.3574 27.9492C77.3574 28.4831 77.4655 28.8776 77.6816 29.1328C77.8978 29.388 78.1595 29.5156 78.4668 29.5156C78.7793 29.5156 79.0462 29.3841 79.2676 29.1211C79.4915 28.8555 79.6035 28.4453 79.6035 27.8906C79.6035 27.362 79.4941 26.9662 79.2754 26.7031C79.0592 26.4401 78.8001 26.3086 78.4981 26.3086C78.1986 26.3086 77.9329 26.4492 77.7012 26.7305C77.472 27.0091 77.3574 27.4154 77.3574 27.9492Z" fill="black"/>
<path d="M81.0488 31.5977L80.9707 30.9375C81.1244 30.9792 81.2585 31 81.3731 31C81.5293 31 81.6543 30.974 81.7481 30.9219C81.8418 30.8698 81.9186 30.7969 81.9785 30.7031C82.0228 30.6328 82.0944 30.4584 82.1934 30.1797C82.2064 30.1406 82.2272 30.0834 82.2559 30.0078L80.6816 25.8516H81.4395L82.3027 28.2539C82.4147 28.5586 82.515 28.8789 82.6035 29.2149C82.6842 28.8919 82.7806 28.5768 82.8926 28.2696L83.7793 25.8516H84.4824L82.9043 30.0703C82.735 30.5261 82.6035 30.8399 82.5098 31.0117C82.3848 31.2435 82.2415 31.4128 82.0801 31.5196C81.9186 31.6289 81.7259 31.6836 81.502 31.6836C81.3665 31.6836 81.2155 31.655 81.0488 31.5977Z" fill="black"/>
<path d="M88.2129 24.1367L88.834 24.1446C88.8053 24.4232 88.7428 24.6172 88.6465 24.7266C88.5527 24.836 88.4303 24.9063 88.2793 24.9375C88.1309 24.9688 87.8379 24.9844 87.4004 24.9844C86.8197 24.9844 86.4238 25.0404 86.2129 25.1524C86.002 25.2643 85.8496 25.444 85.7559 25.6914C85.6647 25.9362 85.6139 26.2526 85.6035 26.6406C85.7806 26.3776 85.9876 26.181 86.2246 26.0508C86.4616 25.918 86.7285 25.8516 87.0254 25.8516C87.5697 25.8516 88.0202 26.0391 88.377 26.4141C88.7337 26.7865 88.9121 27.2917 88.9121 27.9297C88.9121 28.4141 88.8223 28.8112 88.6426 29.1211C88.4629 29.431 88.2494 29.6706 88.002 29.8399C87.7572 30.0091 87.4225 30.0938 86.9981 30.0938C86.5059 30.0938 86.1231 29.9818 85.8496 29.7578C85.5762 29.5313 85.3665 29.2422 85.2207 28.8906C85.0749 28.5391 85.002 27.9271 85.002 27.0547C85.002 25.9584 85.1869 25.2201 85.5566 24.8399C85.929 24.4597 86.5007 24.2696 87.2715 24.2696C87.7507 24.2696 88.0228 24.2617 88.0879 24.2461C88.153 24.2305 88.1947 24.194 88.2129 24.1367ZM88.1777 27.9102C88.1777 27.4779 88.0749 27.1237 87.8691 26.8477C87.666 26.5716 87.3783 26.4336 87.0059 26.4336C86.6178 26.4336 86.3184 26.5794 86.1074 26.8711C85.8965 27.1628 85.791 27.5521 85.791 28.0391C85.791 28.5209 85.9069 28.8893 86.1387 29.1446C86.3731 29.3998 86.6608 29.5274 87.002 29.5274C87.3509 29.5274 87.6335 29.3802 87.8496 29.086C88.0684 28.7891 88.1777 28.3972 88.1777 27.9102Z" fill="black"/>
<path d="M92.5059 28.6641L93.2324 28.7539C93.1178 29.1784 92.9056 29.5078 92.5957 29.7422C92.2858 29.9766 91.89 30.0938 91.4082 30.0938C90.8014 30.0938 90.3197 29.9076 89.9629 29.5352C89.6087 29.1602 89.4316 28.6354 89.4316 27.961C89.4316 27.263 89.6113 26.7214 89.9707 26.336C90.3301 25.9505 90.7962 25.7578 91.3691 25.7578C91.9238 25.7578 92.377 25.9466 92.7285 26.3242C93.0801 26.7018 93.2559 27.2331 93.2559 27.918C93.2559 27.9597 93.2546 28.0222 93.252 28.1055H90.1582C90.1842 28.5612 90.3132 28.9102 90.5449 29.1524C90.7767 29.3946 91.0658 29.5156 91.4121 29.5156C91.6699 29.5156 91.89 29.4479 92.0723 29.3125C92.2546 29.1771 92.3991 28.961 92.5059 28.6641ZM90.1973 27.5274H92.5137C92.4824 27.1784 92.3939 26.9167 92.2481 26.7422C92.0241 26.4714 91.7337 26.336 91.377 26.336C91.054 26.336 90.7819 26.444 90.5606 26.6602C90.3418 26.8763 90.2207 27.1654 90.1973 27.5274Z" fill="black"/>
<path d="M96.5332 25.8516V27.6446C96.7572 27.6446 96.9147 27.6016 97.0059 27.5156C97.097 27.4297 97.2298 27.1797 97.4043 26.7656C97.5684 26.3724 97.7155 26.1211 97.8457 26.0117C97.9733 25.905 98.1764 25.8516 98.4551 25.8516H98.7129V26.4336L98.5215 26.4297C98.334 26.4297 98.2142 26.4571 98.1621 26.5117C98.1074 26.569 98.0241 26.7396 97.9121 27.0235C97.8079 27.2943 97.7116 27.4818 97.6231 27.586C97.5345 27.6901 97.3965 27.7852 97.209 27.8711C97.5137 27.9518 97.8106 28.2331 98.0996 28.7149L98.8731 30H98.0996L97.3457 28.7149C97.1921 28.4544 97.0579 28.2839 96.9434 28.2031C96.8288 28.1224 96.6921 28.0821 96.5332 28.0821V30H95.8145V28.0821C95.6582 28.0821 95.5228 28.1224 95.4082 28.2031C95.2936 28.2813 95.1595 28.4518 95.0059 28.7149L94.252 30H93.4785L94.2481 28.7149C94.5397 28.2331 94.8379 27.9518 95.1426 27.8711C94.9342 27.7748 94.7884 27.6706 94.7051 27.5586C94.6217 27.444 94.4967 27.1732 94.3301 26.7461C94.2728 26.6029 94.2116 26.5143 94.1465 26.4805C94.0788 26.4466 93.9785 26.4297 93.8457 26.4297C93.8119 26.4297 93.7428 26.431 93.6387 26.4336V25.8516H93.7363C94.0072 25.8516 94.1973 25.8685 94.3066 25.9024C94.4186 25.9336 94.5176 26.0026 94.6035 26.1094C94.6921 26.2136 94.8066 26.4323 94.9473 26.7656C95.1191 27.1745 95.2494 27.4232 95.3379 27.5117C95.429 27.6003 95.5879 27.6446 95.8145 27.6446V25.8516H96.5332Z" fill="black"/>
<path d="M99.1152 27.9258C99.1152 27.1576 99.3288 26.5886 99.7559 26.2188C100.113 25.9115 100.548 25.7578 101.061 25.7578C101.631 25.7578 102.097 25.9453 102.459 26.3203C102.821 26.6927 103.002 27.2084 103.002 27.8672C103.002 28.4011 102.921 28.8216 102.76 29.1289C102.601 29.4336 102.368 29.6706 102.061 29.8399C101.756 30.0091 101.423 30.0938 101.061 30.0938C100.48 30.0938 100.01 29.9076 99.6504 29.5352C99.2936 29.1628 99.1152 28.6263 99.1152 27.9258ZM99.8379 27.9258C99.8379 28.4571 99.9538 28.8555 100.186 29.1211C100.417 29.3841 100.709 29.5156 101.061 29.5156C101.41 29.5156 101.7 29.3828 101.932 29.1172C102.163 28.8516 102.279 28.4466 102.279 27.9024C102.279 27.3893 102.162 27.0013 101.928 26.7383C101.696 26.4727 101.407 26.3399 101.061 26.3399C100.709 26.3399 100.417 26.4714 100.186 26.7344C99.9538 26.9974 99.8379 27.3946 99.8379 27.9258Z" fill="black"/>
<path d="M103.85 25.8516H104.943L106.033 29.1719L107.244 25.8516H108.256V30H107.553V26.6602L106.326 30H105.697L104.537 26.5V30H103.85V25.8516Z" fill="black"/>
<path fill-rule="evenodd" clip-rule="evenodd" d="M21.2832 0.00769256C21.5357 0.180775 21.7434 0.415398 21.8922 0.680791C22.0422 0.951313 22.1217 1.25004 22.1332 1.55518C22.7089 1.10132 23.4268 0.876951 24.1576 0.916696C24.8884 0.956441 25.5782 1.26158 26.0961 1.77954C26.6141 2.2911 26.9244 2.97574 26.9705 3.70653C27.0103 4.43091 26.7859 5.15017 26.332 5.71941V5.70788C25.9577 6.16815 25.423 6.472 24.8371 6.56431C24.2499 6.65662 23.6473 6.53611 23.146 6.21943C23.2435 6.2361 23.3422 6.24764 23.4396 6.24764C23.7102 6.24764 23.9691 6.18481 24.2051 6.05148C24.441 5.92455 24.6358 5.74121 24.7807 5.51684C24.9243 5.29248 25.0051 5.0335 25.0217 4.76938C25.0384 4.50527 24.9871 4.23988 24.8717 3.99885C24.7564 3.75781 24.5846 3.55011 24.3653 3.39498C24.1474 3.23985 23.8935 3.14241 23.6294 3.11292C23.3653 3.08471 23.0948 3.11805 22.8473 3.21677C22.5999 3.31421 22.3819 3.47575 22.2152 3.68217C21.9332 4.045 21.7896 4.48732 21.7896 4.94118C21.7896 5.23991 21.7896 7.55153 24.791 7.55153C26.5564 7.55153 27.8039 5.613 27.7231 4.51553C28.8501 5.81557 28.5001 8.15539 26.7231 9.37466C26.0038 9.84006 25.1653 10.0824 24.3076 10.0708C23.0422 10.0708 21.7947 9.55928 21.2832 8.37463C20.7767 9.55928 19.5241 10.0708 18.2638 10.0708C17.4074 10.0824 16.5676 9.84134 15.8484 9.37466C14.0663 8.15026 13.7214 5.80916 14.8483 4.51553C14.774 5.61428 16.0163 7.55153 17.7805 7.55153C20.7819 7.55153 20.7819 5.24504 20.7819 4.94118C20.787 4.48732 20.6383 4.04372 20.3626 3.68217C20.196 3.47575 19.978 3.31421 19.7306 3.21677C19.4831 3.11933 19.2126 3.08471 18.9485 3.11292C18.6844 3.14113 18.4305 3.23985 18.2126 3.39498C17.9946 3.55011 17.8215 3.75781 17.7061 3.99244C17.5907 4.23347 17.5395 4.49886 17.5561 4.76297C17.5728 5.02708 17.6536 5.28607 17.7972 5.51043C17.9407 5.7348 18.1369 5.91814 18.3728 6.04507C18.6087 6.17199 18.8677 6.23994 19.1382 6.23994C19.2357 6.23994 19.3395 6.23482 19.437 6.21174C18.9305 6.52842 18.3267 6.64893 17.7407 6.55149C17.1535 6.45405 16.6189 6.14892 16.2458 5.68864V5.70018C15.7971 5.13093 15.5727 4.41168 15.6189 3.69371C15.665 2.96933 15.9753 2.2911 16.4933 1.77826C17.0112 1.26671 17.6946 0.96157 18.4254 0.915414C19.1562 0.875669 19.8741 1.10004 20.4434 1.54749C20.4549 1.24235 20.5357 0.94362 20.6844 0.673099C20.8344 0.402577 21.0408 0.173083 21.2934 0L21.2832 0.00769256Z" fill="#12A4DD"/>
<path fill-rule="evenodd" clip-rule="evenodd" d="M9.79903 15.8438C12.6286 15.8438 15.8659 17.0118 19.2763 19.944L19.2647 19.9901L19.2878 19.9555C19.7135 18.317 20.8289 17.7298 21.4045 17.5516C21.6289 17.4823 21.8584 17.4477 22.0943 17.4477C23.1405 17.4477 23.9803 18.1208 24.0777 18.2067C24.0828 18.2067 24.0892 18.2067 24.0944 18.2067C24.5598 18.0516 25.0495 17.9772 25.538 17.9708C25.6995 17.9708 25.8662 17.9824 26.0265 17.999C26.0329 17.999 26.0431 17.999 26.0431 18.0042C26.0483 18.0106 26.0547 18.0157 26.0547 18.0208C26.0547 18.026 26.0547 18.0324 26.0547 18.0439C26.0547 18.049 26.0496 18.0554 26.0431 18.0606C25.347 18.6183 24.7841 19.3145 24.3816 20.1081C23.5533 21.7415 23.8123 23.6736 22.2482 25.8185C20.6212 28.0493 18.0737 29.5673 15.7044 30.7353C13.7607 31.8508 11.685 35.347 9.99391 39.942C9.9875 39.9587 9.97724 39.9767 9.9593 39.9882C9.94263 39.9997 9.92468 39.9997 9.90801 39.9997C9.89134 39.9946 9.8734 39.9831 9.86186 39.9715C9.85032 39.9549 9.84519 39.9369 9.85032 39.9202C10.1093 37.4073 10.7016 34.1008 12.3517 31.6392C12.3581 31.6328 12.3581 31.6277 12.3581 31.6225C12.3581 31.6174 12.3581 31.611 12.3517 31.6059C12.3466 31.5995 12.3466 31.5943 12.3401 31.5943C12.335 31.5879 12.3286 31.5879 12.3235 31.5879C9.31569 32.1636 6.79124 32.4162 4.5322 32.4162C3.02574 32.4162 1.52441 32.3008 0.0358986 32.0597C0.0243598 32.0597 0.0192314 32.0533 0.0128209 32.0482C0.00512837 32.0431 0 32.0315 0 32.0251C0 32.0187 0.00512837 32.0085 0.0115388 32.002C0.0166672 31.9969 0.028206 31.9905 0.0346165 31.9905C1.50133 31.9097 7.71179 31.4674 10.908 29.7302C11.9773 29.143 12.7773 28.5917 13.3748 27.9596L14.3812 26.5967C14.2607 26.5967 14.1338 26.6083 14.0017 26.6083C12.685 26.5852 11.3965 26.2224 10.2696 25.5441C5.48479 22.8069 2.94881 22.4158 1.89109 22.4158H1.82826C1.79365 22.4107 1.76544 22.3992 1.73595 22.3812C1.70775 22.3581 1.6898 22.3351 1.67826 22.3004C1.66672 22.2722 1.66672 22.2376 1.67185 22.203C1.67826 22.1684 1.69493 22.1402 1.718 22.1171C4.69631 19.685 7.65281 18.3221 10.758 18.3221C12.0978 18.3272 13.4261 18.5696 14.6851 19.0298C14.8056 19.076 14.9325 19.1106 15.0646 19.1221C15.1915 19.1221 15.1043 19.0247 14.7428 18.8747C13.3107 18.2593 11.7696 17.9375 10.2119 17.9144C8.9926 17.9144 7.78487 18.1388 6.64124 18.5644C5.91686 18.358 5.17453 18.2478 4.42194 18.2311C4.20911 18.2311 4.00269 18.2426 3.78987 18.2657H3.76679C3.73217 18.2606 3.69756 18.249 3.67448 18.2311C3.64627 18.208 3.62832 18.1849 3.61678 18.1503C3.60524 18.1157 3.60524 18.0811 3.61165 18.0529C3.61678 18.0183 3.63473 17.9901 3.66294 17.967C5.40017 16.5695 7.57332 15.8105 9.81057 15.8169L9.79903 15.8438Z" fill="#12A4DD"/>
<path fill-rule="evenodd" clip-rule="evenodd" d="M27.47 10.467C26.5263 11.0824 25.4225 11.4042 24.3019 11.3926C23.2147 11.4208 22.157 11.0939 21.2775 10.4554C20.4031 11.0875 19.3389 11.4221 18.2581 11.3926C17.1312 11.4042 16.0273 11.0824 15.0837 10.467C14.7388 10.2259 14.417 9.94386 14.14 9.62718V15.7799C15.8657 16.4415 17.4748 17.3608 18.9248 18.5057C19.4133 17.6544 20.2018 17.0159 21.139 16.7056C21.4493 16.6133 21.7711 16.562 22.0941 16.562C22.8698 16.5787 23.6237 16.821 24.2673 17.2467C24.6865 17.1428 25.1186 17.0915 25.5494 17.0915C25.7391 17.0915 25.9238 17.1031 26.1071 17.1261C26.2917 17.1377 26.4699 17.2069 26.6187 17.3274C26.7622 17.4428 26.8712 17.598 26.9238 17.7762C26.9815 17.9544 26.9751 18.1441 26.9238 18.3223C26.8661 18.5005 26.7622 18.6557 26.6135 18.7711C26.0212 19.248 25.5378 19.8403 25.1994 20.5198C24.9237 21.066 24.7801 21.6763 24.6186 22.3827C24.3481 23.561 24.0429 24.902 22.9916 26.3508C21.1864 28.8355 18.3966 30.4163 16.1606 31.5202C16.0747 31.5715 15.9875 31.624 15.9081 31.6817H26.7815C26.9994 31.6817 27.2123 31.642 27.4084 31.5612C27.6097 31.4805 27.7879 31.3599 27.9431 31.2099C28.0982 31.0599 28.2187 30.8766 28.2995 30.6804C28.3802 30.4855 28.4264 30.2727 28.4264 30.0599V9.62718C28.1367 9.94386 27.82 10.2259 27.47 10.467Z" fill="#12A4DD"/>
</svg>
