<svg width="140" height="24" viewBox="0 0 140 24" fill="none" xmlns="http://www.w3.org/2000/svg">
<path d="M30.6772 0.434311H8.73633V22.3752H30.6772V0.434311Z" fill="#264796"/>
<path fill-rule="evenodd" clip-rule="evenodd" d="M39.4075 1.79694L19.701 18.2354L12.9131 12.5712L39.4075 1.79694Z" fill="url(#paint0_linear_99_585)"/>
<path fill-rule="evenodd" clip-rule="evenodd" d="M0 1.79694L17.3767 16.2926L16.4676 20.9362L28.9859 10.4906L22.9189 11.1188L0 1.79694Z" fill="url(#paint1_linear_99_585)"/>
<path fill-rule="evenodd" clip-rule="evenodd" d="M54.3541 12.025L50.2829 6.31313V14.9882H46.3549V0.434311H50.2829L55.3666 7.90344L60.4529 0.434311H64.3544V14.9882H60.4529V6.31313L56.3552 12.025H54.3541Z" fill="#264796"/>
<path fill-rule="evenodd" clip-rule="evenodd" d="M78.3094 8.91593L76.0935 3.92768L73.8751 8.91593H78.3094ZM67.657 14.9882V14.1215L74.1401 0.434311H78.0443L84.5275 14.1215V14.9882H81.0102L79.7327 12.1681H72.4067L71.1769 14.9882H67.657Z" fill="#264796"/>
<path fill-rule="evenodd" clip-rule="evenodd" d="M91.708 0.434311V6.09579H99.3229V0.434311H103.227V14.9882H99.3229V9.56795H91.708V14.9882H87.8038V0.434311H91.708Z" fill="#264796"/>
<path fill-rule="evenodd" clip-rule="evenodd" d="M117.179 8.91593L114.963 3.92768L112.745 8.91593H117.179ZM106.527 14.9882V14.1215L113.01 0.434311H116.914L123.397 14.1215V14.9882H119.88L118.602 12.1681H111.276L110.046 14.9882H106.527Z" fill="#264796"/>
<path fill-rule="evenodd" clip-rule="evenodd" d="M125.759 7.15636C125.759 3.22832 127.471 0 133.615 0H134.41C136.361 0 138.219 0.265051 140 0.723588V4.26466C137.999 3.68685 135.759 3.46951 134.288 3.46951C129.758 3.46951 129.758 5.22945 129.758 7.71032C129.758 10.1912 129.758 11.9988 134.288 11.9988C135.756 11.9988 137.999 11.7576 140 11.1798V14.7474C138.216 15.1821 136.361 15.4233 134.41 15.4233H133.615C127.471 15.4233 125.759 12.2188 125.759 8.29078V7.15636Z" fill="#264796"/>
<path fill-rule="evenodd" clip-rule="evenodd" d="M48.4991 19.1576C48.7403 19.3034 48.9338 19.4942 49.0769 19.7354C49.2227 19.9766 49.2943 20.2417 49.2943 20.5306C49.2943 20.8195 49.2227 21.1084 49.0769 21.3257C48.9312 21.5669 48.7403 21.7604 48.4991 21.9035C48.2341 22.0228 47.969 22.097 47.6563 22.097C47.3674 22.097 47.1262 22.0493 46.9088 21.9778C46.6915 21.8823 46.5245 21.7604 46.3549 21.6173L46.6915 21.2807C46.9327 21.5219 47.2454 21.6411 47.6324 21.6411C47.9213 21.6411 48.1864 21.5696 48.3798 21.4C48.5972 21.2065 48.7403 20.9891 48.7642 20.7241H47.2454V20.3132H48.7642C48.7165 20.0482 48.5707 19.8309 48.3798 19.6639C48.1625 19.4942 47.9213 19.4227 47.6324 19.4227C47.2481 19.4227 46.9327 19.5446 46.6915 19.7831L46.3549 19.4704C46.5245 19.3008 46.6915 19.1815 46.9088 19.0834C47.1262 19.0118 47.3912 18.9615 47.6563 18.9615C47.969 18.9641 48.2341 19.0384 48.4991 19.1576Z" fill="#00A0E3"/>
<path fill-rule="evenodd" clip-rule="evenodd" d="M54.3067 18.9879V22.0493H53.7528V19.4942H52.4275L52.4037 20.1701C52.3798 20.5809 52.356 20.9175 52.2844 21.2064C52.2367 21.4715 52.1386 21.6888 52.0193 21.8558C51.8974 22.0254 51.7304 22.097 51.5131 22.097C51.4177 22.097 51.2958 22.097 51.1765 22.0493L51.2003 21.5907C51.248 21.5907 51.2958 21.6146 51.3461 21.6146C51.4919 21.6146 51.6112 21.543 51.6827 21.3972C51.7781 21.278 51.8285 21.1083 51.8524 20.9148C51.8762 20.7452 51.8762 20.4802 51.9001 20.1197L51.9478 18.9879H54.3067Z" fill="#00A0E3"/>
<path fill-rule="evenodd" clip-rule="evenodd" d="M61.6801 21.5196C61.8497 21.4241 61.9452 21.3022 62.0167 21.1352V20.7005H61.1739C60.6915 20.7005 60.4503 20.8463 60.4503 21.1829C60.4503 21.3287 60.5218 21.448 60.6438 21.5434C60.763 21.615 60.9327 21.6653 61.15 21.6653C61.3435 21.6653 61.537 21.6176 61.6801 21.5196ZM62.2341 19.2799C62.4753 19.4972 62.5707 19.81 62.5707 20.2208V22.0523H62.0406V21.668C61.969 21.8111 61.8232 21.9092 61.6562 21.9807C61.4866 22.0523 61.2693 22.1027 61.0546 22.1027C60.6941 22.1027 60.4264 22.0046 60.2117 21.8615C60.0182 21.6918 59.9228 21.4745 59.9228 21.2121C59.9228 20.9232 60.0209 20.7058 60.2117 20.5627C60.4052 20.3931 60.718 20.2977 61.15 20.2977H62.0167V20.2023C62.0167 19.9611 61.9452 19.7676 61.8232 19.6483C61.6801 19.5264 61.4628 19.4548 61.1977 19.4548C61.0281 19.4548 60.8372 19.4787 60.6676 19.5502C60.498 19.5979 60.3549 19.6934 60.2329 19.7914L59.9917 19.3567C60.1587 19.2375 60.3522 19.1394 60.5695 19.0678C60.7869 19.0201 61.0281 18.9724 61.2693 18.9724C61.6801 18.9645 62.0167 19.0625 62.2341 19.2799Z" fill="#00A0E3"/>
<path fill-rule="evenodd" clip-rule="evenodd" d="M67.2963 21.4721C67.4659 21.3767 67.5852 21.2547 67.6832 21.0877C67.7548 20.942 67.8025 20.7511 67.8025 20.5338C67.8025 20.3164 67.7548 20.1256 67.6832 19.9798C67.5878 19.8102 67.4659 19.6909 67.2963 19.5929C67.1505 19.4974 66.9596 19.4497 66.7662 19.4497C66.5727 19.4497 66.4057 19.4974 66.2599 19.5929C66.0903 19.6883 65.971 19.8102 65.8756 19.9798C65.7802 20.1256 65.7563 20.3164 65.7563 20.5338C65.7563 20.7511 65.7802 20.9446 65.8756 21.0877C65.971 21.2574 66.0929 21.3767 66.2361 21.4721C66.4057 21.5675 66.5727 21.6178 66.7662 21.6178C66.957 21.6152 67.1505 21.5675 67.2963 21.4721ZM67.609 19.1582C67.8502 19.304 68.0437 19.4709 68.163 19.7121C68.3088 19.9533 68.3565 20.2184 68.3565 20.5311C68.3565 20.8439 68.3088 21.109 68.163 21.3501C68.0437 21.5913 67.8502 21.761 67.609 21.9041C67.3917 22.0234 67.1266 22.0976 66.8139 22.0976C66.5965 22.0976 66.4057 22.0499 66.2122 21.9783C66.0426 21.8829 65.8756 21.761 65.7537 21.594V23.1843H65.1997V18.9885H65.7298V19.4948C65.8491 19.3013 65.9949 19.182 66.1883 19.1105C66.3818 19.015 66.5965 18.9647 66.8139 18.9647C67.1266 18.9647 67.3917 19.0389 67.609 19.1582Z" fill="#00A0E3"/>
<path fill-rule="evenodd" clip-rule="evenodd" d="M72.2845 21.5196C72.4303 21.4241 72.5496 21.3022 72.6211 21.1352V20.7005H71.7544C71.2959 20.7005 71.0547 20.8463 71.0547 21.1829C71.0547 21.3287 71.1024 21.448 71.2243 21.5434C71.3462 21.615 71.5132 21.6653 71.7306 21.6653C71.9453 21.6653 72.1149 21.6176 72.2845 21.5196ZM72.8146 19.2799C73.0558 19.4972 73.1751 19.81 73.1751 20.2208V22.0523H72.645V21.668C72.5496 21.8111 72.4038 21.9092 72.2342 21.9807C72.0645 22.0523 71.8737 22.1027 71.6325 22.1027C71.2959 22.1027 71.007 22.0046 70.8135 21.8615C70.5962 21.6918 70.5007 21.4745 70.5007 21.2121C70.5007 20.9232 70.5961 20.7058 70.7896 20.5627C70.9831 20.3931 71.2959 20.2977 71.7306 20.2977H72.6211V20.2023C72.6211 19.9611 72.5496 19.7676 72.4038 19.6483C72.258 19.5264 72.0672 19.4548 71.7783 19.4548C71.6086 19.4548 71.4417 19.4787 71.2482 19.5502C71.0785 19.5979 70.9354 19.6934 70.8135 19.7914L70.5962 19.3567C70.7419 19.2375 70.9328 19.1394 71.1501 19.0678C71.3675 19.0201 71.6086 18.9724 71.8498 18.9724C72.2845 18.9645 72.5973 19.0625 72.8146 19.2799Z" fill="#00A0E3"/>
<path fill-rule="evenodd" clip-rule="evenodd" d="M78.4043 18.9879V22.0493H77.8503V19.4942H76.5489L76.5012 20.1701C76.4774 20.5809 76.4535 20.9175 76.4058 21.2064C76.3342 21.4715 76.26 21.6888 76.1408 21.8558C75.995 22.0254 75.828 22.097 75.6107 22.097C75.5152 22.097 75.3933 22.097 75.274 22.0493L75.2979 21.5907C75.3695 21.5907 75.3933 21.6146 75.4437 21.6146C75.6133 21.6146 75.7087 21.543 75.8041 21.3972C75.8757 21.278 75.9234 21.1083 75.9499 20.9148C75.9738 20.7452 75.9976 20.4802 76.0215 20.1197L76.0692 18.9879H78.4043Z" fill="#00A0E3"/>
<path fill-rule="evenodd" clip-rule="evenodd" d="M84.1403 18.9879H84.6942V22.0493H84.1403V18.9879ZM82.9104 21.4953C83.0562 21.3999 83.1039 21.2303 83.1039 21.0368C83.1039 20.8194 83.0562 20.6763 82.9343 20.6021C82.7885 20.5067 82.5977 20.4563 82.3565 20.4563L81.6567 20.4325V21.6384H82.3565C82.5977 21.6411 82.7912 21.5907 82.9104 21.4953ZM83.369 20.3132C83.5625 20.4828 83.6817 20.724 83.6817 21.0368C83.6817 21.3734 83.5598 21.6146 83.3451 21.8081C83.1278 21.9777 82.815 22.0731 82.3803 22.0731L81.1028 22.0493V18.9879H81.6567V20.0243L82.4758 20.0481C82.8627 20.0481 83.1755 20.1223 83.369 20.3132Z" fill="#00A0E3"/>
<path fill-rule="evenodd" clip-rule="evenodd" d="M88.5749 20.7717H87.9467V22.0493H87.3928V18.9879H87.9467V20.2893H88.5987L89.5874 18.9879H90.1652L89.0069 20.4828L90.2606 22.0493H89.6112L88.5749 20.7717Z" fill="#00A0E3"/>
<path fill-rule="evenodd" clip-rule="evenodd" d="M97.1545 21.5196C97.3003 21.4241 97.4196 21.3022 97.4911 21.1352V20.7005H96.6244C96.1659 20.7005 95.9247 20.8463 95.9247 21.1829C95.9247 21.3287 95.9724 21.448 96.0943 21.5434C96.2136 21.615 96.3832 21.6653 96.6006 21.6653C96.8152 21.6653 96.9849 21.6176 97.1545 21.5196ZM97.7085 19.2799C97.9258 19.4972 98.0451 19.81 98.0451 20.2208V22.0523H97.515V21.668C97.4196 21.8111 97.2738 21.9092 97.1042 21.9807C96.9345 22.0523 96.7437 22.1027 96.5025 22.1027C96.1659 22.1027 95.877 22.0046 95.6835 21.8615C95.4661 21.6918 95.3707 21.4745 95.3707 21.2121C95.3707 20.9232 95.4688 20.7058 95.6596 20.5627C95.8531 20.3931 96.1659 20.2977 96.6006 20.2977H97.4911V20.2023C97.4911 19.9611 97.4196 19.7676 97.2738 19.6483C97.128 19.5264 96.9372 19.4548 96.6721 19.4548C96.4786 19.4548 96.309 19.4787 96.1182 19.5502C95.9485 19.5979 95.8054 19.6934 95.6835 19.7914L95.4661 19.3567C95.6093 19.2375 95.8028 19.1394 96.0201 19.0678C96.2374 19.0201 96.4786 18.9724 96.7198 18.9724C97.1545 18.9645 97.4673 19.0625 97.7085 19.2799Z" fill="#00A0E3"/>
<path fill-rule="evenodd" clip-rule="evenodd" d="M102.333 19.1576C102.574 19.3034 102.792 19.4942 102.911 19.7354C103.057 19.9766 103.128 20.2417 103.128 20.5306C103.128 20.8195 103.057 21.1084 102.911 21.3257C102.792 21.5669 102.574 21.7604 102.333 21.9035C102.068 22.0228 101.803 22.097 101.49 22.097C101.225 22.097 100.96 22.0493 100.743 21.9778C100.526 21.8823 100.359 21.7604 100.213 21.6173L100.526 21.2807C100.767 21.5219 101.08 21.6411 101.467 21.6411C101.755 21.6411 102.021 21.5696 102.238 21.4C102.431 21.2065 102.574 20.9891 102.622 20.7241H101.08V20.3132H102.598C102.551 20.0482 102.429 19.8309 102.214 19.6639C101.997 19.4942 101.755 19.4227 101.467 19.4227C101.08 19.4227 100.767 19.5446 100.526 19.7831L100.213 19.4704C100.359 19.3008 100.526 19.1815 100.767 19.0834C100.984 19.0118 101.225 18.9615 101.49 18.9615C101.803 18.9641 102.068 19.0384 102.333 19.1576Z" fill="#00A0E3"/>
<path fill-rule="evenodd" clip-rule="evenodd" d="M107.661 21.4721C107.806 21.3767 107.926 21.2547 108.021 21.0877C108.117 20.942 108.14 20.7511 108.14 20.5338C108.14 20.3164 108.117 20.1256 108.021 19.9798C107.926 19.8102 107.804 19.6909 107.661 19.5929C107.491 19.4974 107.324 19.4497 107.131 19.4497C106.937 19.4497 106.746 19.4974 106.601 19.5929C106.431 19.6883 106.312 19.8102 106.24 19.9798C106.145 20.1256 106.094 20.3164 106.094 20.5338C106.094 20.7511 106.142 20.9446 106.216 21.0877C106.312 21.2574 106.434 21.3767 106.601 21.4721C106.746 21.5675 106.937 21.6178 107.131 21.6178C107.321 21.6152 107.491 21.5675 107.661 21.4721ZM107.973 19.1582C108.191 19.304 108.384 19.4709 108.504 19.7121C108.649 19.9533 108.721 20.2184 108.721 20.5311C108.721 20.8439 108.649 21.109 108.504 21.3501C108.382 21.5913 108.191 21.761 107.973 21.9041C107.732 22.0234 107.467 22.0976 107.154 22.0976C106.937 22.0976 106.744 22.0499 106.553 21.9783C106.386 21.8829 106.216 21.761 106.094 21.594V23.1843H105.54V18.9885H106.07V19.4948C106.192 19.3013 106.359 19.182 106.553 19.1105C106.722 19.015 106.94 18.9647 107.154 18.9647C107.467 18.9647 107.732 19.0389 107.973 19.1582Z" fill="#00A0E3"/>
<path fill-rule="evenodd" clip-rule="evenodd" d="M112.986 21.4717C113.131 21.3763 113.251 21.2544 113.346 21.0874C113.444 20.9416 113.468 20.7508 113.468 20.5334C113.468 20.3161 113.444 20.1252 113.346 19.9795C113.251 19.8098 113.129 19.6906 112.986 19.5925C112.816 19.4971 112.649 19.4494 112.456 19.4494C112.262 19.4494 112.071 19.4971 111.925 19.5925C111.756 19.6879 111.637 19.8098 111.541 19.9795C111.47 20.1252 111.422 20.3161 111.422 20.5334C111.422 20.7508 111.47 20.9442 111.541 21.0874C111.637 21.257 111.758 21.3763 111.925 21.4717C112.071 21.5671 112.262 21.6175 112.456 21.6175C112.649 21.6148 112.816 21.5671 112.986 21.4717ZM111.637 21.9064C111.395 21.7606 111.202 21.5698 111.059 21.3286C110.913 21.1112 110.841 20.8223 110.841 20.5334C110.841 20.2207 110.913 19.9556 111.059 19.7144C111.204 19.4971 111.395 19.3036 111.637 19.1605C111.878 19.0412 112.143 18.967 112.456 18.967C112.744 18.967 113.033 19.0385 113.275 19.1605C113.516 19.3062 113.683 19.4971 113.828 19.7144C113.974 19.9556 114.046 20.2207 114.046 20.5334C114.046 20.8223 113.974 21.1112 113.828 21.3286C113.683 21.5698 113.516 21.7632 113.275 21.9064C113.033 22.0256 112.744 22.0999 112.456 22.0999C112.143 22.0972 111.878 22.0256 111.637 21.9064Z" fill="#00A0E3"/>
<path fill-rule="evenodd" clip-rule="evenodd" d="M119.299 18.9879V22.0493H118.745V19.4942H117.009V22.0493H116.455V18.9879H119.299Z" fill="#00A0E3"/>
<path fill-rule="evenodd" clip-rule="evenodd" d="M123.829 21.4717C123.974 21.3763 124.117 21.2544 124.189 21.0874C124.284 20.9416 124.335 20.7508 124.335 20.5334C124.335 20.3161 124.287 20.1252 124.189 19.9795C124.117 19.8098 123.972 19.6906 123.829 19.5925C123.659 19.4971 123.492 19.4494 123.298 19.4494C123.105 19.4494 122.938 19.4971 122.768 19.5925C122.623 19.6879 122.479 19.8098 122.408 19.9795C122.313 20.1252 122.262 20.3161 122.262 20.5334C122.262 20.7508 122.31 20.9442 122.408 21.0874C122.479 21.257 122.625 21.3763 122.768 21.4717C122.938 21.5671 123.105 21.6175 123.298 21.6175C123.492 21.6148 123.662 21.5671 123.829 21.4717ZM122.479 21.9064C122.238 21.7606 122.045 21.5698 121.902 21.3286C121.782 21.1112 121.708 20.8223 121.708 20.5334C121.708 20.2207 121.78 19.9556 121.902 19.7144C122.047 19.4971 122.238 19.3036 122.479 19.1605C122.721 19.0412 122.986 18.967 123.298 18.967C123.611 18.967 123.876 19.0385 124.117 19.1605C124.359 19.3062 124.552 19.4971 124.671 19.7144C124.817 19.9556 124.889 20.2207 124.889 20.5334C124.889 20.8223 124.817 21.1112 124.671 21.3286C124.552 21.5698 124.359 21.7632 124.117 21.9064C123.876 22.0256 123.611 22.0999 123.298 22.0999C122.986 22.0972 122.721 22.0256 122.479 21.9064Z" fill="#00A0E3"/>
<path fill-rule="evenodd" clip-rule="evenodd" d="M129.422 21.4721C129.568 21.3767 129.687 21.2547 129.782 21.0877C129.878 20.942 129.928 20.7511 129.928 20.5338C129.928 20.3164 129.88 20.1256 129.782 19.9798C129.687 19.8102 129.565 19.6909 129.422 19.5929C129.252 19.4974 129.085 19.4497 128.892 19.4497C128.698 19.4497 128.531 19.4974 128.362 19.5929C128.216 19.6883 128.096 19.8102 128.001 19.9798C127.906 20.1256 127.855 20.3164 127.855 20.5338C127.855 20.7511 127.903 20.9446 128.001 21.0877C128.073 21.2574 128.218 21.3767 128.362 21.4721C128.531 21.5675 128.698 21.6178 128.892 21.6178C129.085 21.6152 129.252 21.5675 129.422 21.4721ZM129.734 19.1582C129.976 19.304 130.145 19.4709 130.288 19.7121C130.408 19.9533 130.482 20.2184 130.482 20.5311C130.482 20.8439 130.41 21.109 130.288 21.3501C130.143 21.5913 129.976 21.761 129.734 21.9041C129.493 22.0234 129.228 22.0976 128.939 22.0976C128.722 22.0976 128.505 22.0499 128.338 21.9783C128.144 21.8829 128.001 21.761 127.855 21.594V23.1843H127.301V18.9885H127.831V19.4948C127.977 19.3013 128.12 19.182 128.314 19.1105C128.507 19.015 128.698 18.9647 128.939 18.9647C129.228 18.9647 129.493 19.0389 129.734 19.1582Z" fill="#00A0E3"/>
<path fill-rule="evenodd" clip-rule="evenodd" d="M135.059 19.4942H133.951V22.0493H133.397V19.4942H132.265V18.9879H135.059V19.4942Z" fill="#00A0E3"/>
<path fill-rule="evenodd" clip-rule="evenodd" d="M139.999 18.9879L138.528 22.362C138.385 22.6748 138.239 22.8921 138.07 23.0353C137.876 23.1545 137.683 23.2049 137.418 23.2049C137.275 23.2049 137.129 23.181 136.983 23.1333C136.837 23.0856 136.742 23.0379 136.646 22.9398L136.888 22.5052C137.031 22.6748 137.224 22.7463 137.418 22.7463C137.564 22.7463 137.683 22.6986 137.754 22.6271C137.85 22.5555 137.924 22.4336 138.019 22.2666L138.115 22.0493L136.742 18.9879H137.32L138.404 21.445L139.464 18.9879H139.999Z" fill="#00A0E3"/>
<defs>
<linearGradient id="paint0_linear_99_585" x1="38.6806" y1="0.995795" x2="20.8329" y2="12.4893" gradientUnits="userSpaceOnUse">
<stop stop-color="#009FE3"/>
<stop offset="1" stop-color="#164194"/>
</linearGradient>
<linearGradient id="paint1_linear_99_585" x1="19.8954" y1="14.0519" x2="-5.46624" y2="-0.832868" gradientUnits="userSpaceOnUse">
<stop stop-color="#009FE3"/>
<stop offset="1" stop-color="#164194"/>
</linearGradient>
</defs>
</svg>
