<svg width="115" height="34" viewBox="0 0 115 34" fill="none" xmlns="http://www.w3.org/2000/svg">
<path fill-rule="evenodd" clip-rule="evenodd" d="M17 0C7.61047 0 0 7.61047 0 17C0 26.3866 7.61047 34 17 34C26.3895 34 34 26.3895 34 17C33.9971 7.61047 26.3866 0 17 0ZM26.4535 19.0436V16.4419H24.2267V26.657L24.2209 26.6773H20.1017L16.9767 16.8605L13.8517 26.6773H9.85174L4.67151 9.21802H9.90407L12.093 18.0116L14.9593 9.21802H19.2006L22.0581 18.2733L24.3721 9.21802H29.3256L26.4535 19.0436Z" fill="#0D4C87"/>
<path fill-rule="evenodd" clip-rule="evenodd" d="M25.3398 12.6513C24.5491 12.6513 23.9095 13.2909 23.9095 14.0816C23.9095 14.8723 24.5491 15.5118 25.3398 15.5118C26.1305 15.5118 26.77 14.8694 26.77 14.0816C26.77 13.2909 26.1305 12.6513 25.3398 12.6513Z" fill="#76787B"/>
<path d="M54.7589 22.0118H53.9769V26.7385H54.7589V22.0118Z" fill="#76787B"/>
<path fill-rule="evenodd" clip-rule="evenodd" d="M56.4648 22.0028L59.6101 24.8371V22.0028H60.4008V26.7324V26.7237V26.7382L57.2468 23.9039V26.7324H56.4648V22.0028Z" fill="#76787B"/>
<path fill-rule="evenodd" clip-rule="evenodd" d="M61.5145 22.0118H65.4563V22.8025H63.8837V26.7385H63.093V22.8025H61.5145V22.0118Z" fill="#76787B"/>
<path fill-rule="evenodd" clip-rule="evenodd" d="M69.9126 22.0118V22.8025H67.5492V23.9856H69.9126V24.7705H67.5492V25.9478H69.9126V26.7385H66.7672V22.0118H69.9126Z" fill="#76787B"/>
<path fill-rule="evenodd" clip-rule="evenodd" d="M74.6482 26.7385L73.7354 25.1658H72.4011V26.7385H71.6191V22.0118H73.9825C74.4127 22.0118 74.7848 22.1658 75.093 22.474C75.4011 22.7821 75.5552 23.1513 75.5552 23.5845C75.5552 23.91 75.4622 24.2095 75.2761 24.4769C75.093 24.7414 74.8633 24.9304 74.5814 25.0438L75.5552 26.7385H74.6482ZM73.9796 22.8025H72.3982V24.3693L73.9796 24.3752C74.1947 24.3752 74.3779 24.2967 74.5319 24.1426C74.686 23.9885 74.7645 23.8025 74.7645 23.5845C74.7645 23.3693 74.686 23.1862 74.5319 23.0321C74.3779 22.8781 74.1947 22.8025 73.9796 22.8025Z" fill="#76787B"/>
<path fill-rule="evenodd" clip-rule="evenodd" d="M77.0612 22.0028L80.2094 24.8371V22.0028H80.9972V26.7324V26.7237V26.7382L77.8431 23.9039V26.7324H77.0612V22.0028Z" fill="#76787B"/>
<path fill-rule="evenodd" clip-rule="evenodd" d="M85.7621 25.9478H83.5877L83.1866 26.7385H82.3087L84.672 22.0118L87.0354 26.7385H86.1575L85.7621 25.9478ZM83.9773 25.1658H85.3668L84.672 23.7763L83.9773 25.1658Z" fill="#76787B"/>
<path fill-rule="evenodd" clip-rule="evenodd" d="M87.1454 22.0118H91.0872V22.8025H89.5146V26.7385H88.7239V22.8025H87.1454V22.0118Z" fill="#76787B"/>
<path d="M93.1806 22.0118H92.3986V26.7385H93.1806V22.0118Z" fill="#76787B"/>
<path fill-rule="evenodd" clip-rule="evenodd" d="M96.8547 22.0118C97.5088 22.0118 98.064 22.2443 98.5233 22.7065C98.9913 23.1688 99.2239 23.7269 99.2239 24.3752C99.2239 25.035 98.9913 25.5903 98.5233 26.0438C98.064 26.506 97.5088 26.7385 96.8547 26.7385C96.2006 26.7385 95.6454 26.506 95.1861 26.0438C94.7239 25.5845 94.4913 25.0292 94.4913 24.3752C94.4913 23.7269 94.7239 23.1688 95.1861 22.7065C95.6396 22.2414 96.1948 22.0118 96.8547 22.0118ZM96.8547 22.8025C96.4245 22.8025 96.0524 22.9565 95.7384 23.2647C95.4332 23.5728 95.282 23.9449 95.282 24.3752C95.282 24.8083 95.4332 25.1804 95.7384 25.4914C96.0524 25.7967 96.4245 25.9478 96.8547 25.9478C97.2849 25.9478 97.657 25.7967 97.9652 25.4914C98.2733 25.1775 98.4274 24.8054 98.4274 24.3752C98.4274 23.9449 98.2733 23.5728 97.9652 23.2647C97.6541 22.9565 97.2849 22.8025 96.8547 22.8025Z" fill="#76787B"/>
<path fill-rule="evenodd" clip-rule="evenodd" d="M100.534 22.0028L103.68 24.8371V22.0028H104.47V26.7324V26.7237V26.7382L101.316 23.9039V26.7324H100.534V22.0028Z" fill="#76787B"/>
<path fill-rule="evenodd" clip-rule="evenodd" d="M109.232 25.9478H107.058L106.657 26.7385H105.779L108.142 22.0118L110.506 26.7385H109.628L109.232 25.9478ZM107.451 25.1658H108.84L108.145 23.7763L107.451 25.1658Z" fill="#76787B"/>
<path fill-rule="evenodd" clip-rule="evenodd" d="M111.817 22.0118H112.599V25.9478H114.965V26.7385H111.817V22.0118Z" fill="#76787B"/>
<path d="M55.7532 9.16595H54.0381V19.5148H55.7532V9.16595Z" fill="#0D4C87"/>
<path fill-rule="evenodd" clip-rule="evenodd" d="M59.1656 9.15126L66.0551 15.3547V9.15126H67.7848V19.5001V19.4856V19.5146L60.8807 13.3111V19.5001H59.1656V9.15126Z" fill="#0D4C87"/>
<path fill-rule="evenodd" clip-rule="evenodd" d="M77.8141 19.5148L75.817 16.07H72.8955V19.5148H71.1804V9.16595H76.3548C77.2995 9.16595 78.1077 9.50316 78.785 10.1805C79.4623 10.8578 79.7995 11.666 79.7995 12.6107C79.7995 13.3258 79.5961 13.977 79.1891 14.5642C78.7908 15.1398 78.285 15.5526 77.6687 15.8026L79.8024 19.5148H77.8141ZM76.3548 10.8956H72.8955V14.3258L76.3548 14.3404C76.8228 14.3404 77.224 14.1718 77.5612 13.8346C77.8984 13.4973 78.0699 13.0904 78.0699 12.6107C78.0699 12.1427 77.9013 11.7415 77.5612 11.4014C77.224 11.0642 76.8199 10.8956 76.3548 10.8956Z" fill="#0D4C87"/>
<path fill-rule="evenodd" clip-rule="evenodd" d="M87.5002 9.16595C88.9304 9.16595 90.1484 9.67177 91.1542 10.6863C92.1775 11.7008 92.6891 12.9189 92.6891 14.3404C92.6891 15.7822 92.1775 17.0003 91.1542 17.9944C90.1484 19.009 88.9333 19.5148 87.5002 19.5148C86.0699 19.5148 84.8519 19.009 83.8461 17.9944C82.8316 16.9915 82.3257 15.7735 82.3257 14.3404C82.3257 12.9189 82.8345 11.7008 83.8461 10.6863C84.8403 9.67177 86.0583 9.16595 87.5002 9.16595ZM87.5002 10.8956C86.5554 10.8956 85.7414 11.2328 85.0554 11.9101C84.3897 12.5875 84.0554 13.3956 84.0554 14.3404C84.0554 15.2851 84.3868 16.0991 85.0554 16.7851C85.7414 17.4508 86.5554 17.7851 87.5002 17.7851C88.4449 17.7851 89.2531 17.4508 89.9304 16.7851C90.6077 16.0991 90.9449 15.2851 90.9449 14.3404C90.9449 13.3956 90.6077 12.5846 89.9304 11.9101C89.2531 11.2328 88.4449 10.8956 87.5002 10.8956Z" fill="#0D4C87"/>
<path fill-rule="evenodd" clip-rule="evenodd" d="M100.375 9.16595C101.09 9.16595 101.758 9.29967 102.381 9.57002C103.003 9.83747 103.552 10.2125 104.029 10.6892L102.805 11.913C102.128 11.2386 101.32 10.8985 100.375 10.8985C99.898 10.8985 99.4503 10.9886 99.0317 11.166C98.616 11.3462 98.2497 11.5904 97.9358 11.9043C97.6218 12.2183 97.3747 12.5817 97.1916 13.0003C97.0085 13.4189 96.9154 13.8636 96.9154 14.3433C96.9154 14.82 97.0085 15.2677 97.1916 15.6863C97.3747 16.1049 97.6218 16.4683 97.93 16.7822C98.2381 17.0962 98.6044 17.3404 99.0259 17.5206C99.4474 17.7008 99.898 17.788 100.375 17.788C101.308 17.788 102.119 17.4537 102.805 16.788L104.029 17.9944C103.552 18.4712 103.003 18.8462 102.381 19.1136C101.758 19.3811 101.09 19.5148 100.375 19.5148C99.6596 19.5148 98.9881 19.3782 98.3631 19.1049C97.7381 18.8317 97.1887 18.4625 96.7149 17.9944C96.241 17.5264 95.8689 16.9799 95.5957 16.3549C95.3224 15.727 95.1858 15.0584 95.1858 14.3433C95.1858 13.6485 95.3224 12.9828 95.5957 12.352C95.8689 11.7212 96.241 11.1689 96.7149 10.6979C97.1858 10.227 97.7352 9.85491 98.3631 9.57875C98.9881 9.30258 99.6596 9.16595 100.375 9.16595Z" fill="#0D4C87"/>
<path fill-rule="evenodd" clip-rule="evenodd" d="M109.791 14.3404L114.965 19.5148H112.532L108.061 15.07V19.5148H106.346V9.16595H108.061V13.6253L112.532 9.16595H114.965L109.791 14.3404Z" fill="#0D4C87"/>
<path fill-rule="evenodd" clip-rule="evenodd" d="M37.4332 9.16595H39.439L41.3722 16.6194H41.4042L43.7152 9.16595H45.5175L47.785 16.6194H47.814L49.8344 9.16595H51.6978L48.7007 19.5148H46.9565L44.5728 11.6369H44.5437L42.16 19.5148H40.471L37.4332 9.16595Z" fill="#0D4C87"/>
</svg>
